<?xml version="1.0" encoding="UTF-8" standalone="no"?>
<!-- Created with Inkscape (http://www.inkscape.org/) -->

<svg
   width="55.089062mm"
   height="56.132236mm"
   viewBox="0 0 55.089062 56.132236"
   version="1.1"
   id="svg1"
   inkscape:version="1.4 (86a8ad7, 2024-10-11)"
   sodipodi:docname="maplibre_layerhub3.svg"
   xmlns:inkscape="http://www.inkscape.org/namespaces/inkscape"
   xmlns:sodipodi="http://sodipodi.sourceforge.net/DTD/sodipodi-0.dtd"
   xmlns="http://www.w3.org/2000/svg"
   xmlns:svg="http://www.w3.org/2000/svg">
  <sodipodi:namedview
     id="namedview1"
     pagecolor="#ffffff"
     bordercolor="#999999"
     borderopacity="1"
     inkscape:showpageshadow="2"
     inkscape:pageopacity="0"
     inkscape:pagecheckerboard="0"
     inkscape:deskcolor="#d1d1d1"
     inkscape:document-units="mm"
     inkscape:zoom="1.3316682"
     inkscape:cx="105.88223"
     inkscape:cy="129.53677"
     inkscape:window-width="2160"
     inkscape:window-height="1334"
     inkscape:window-x="-11"
     inkscape:window-y="-11"
     inkscape:window-maximized="1"
     inkscape:current-layer="layer1" />
  <defs
     id="defs1" />
  <g
     inkscape:label="图层 1"
     inkscape:groupmode="layer"
     id="layer1"
     transform="translate(-193.14583,-79.639583)">
    <path
       d="m 220.48052,79.639583 27.75437,16.337576 -13.92874,7.564371 -13.8199,7.63349 -27.34042,-15.213638 z m 0.0187,6.895227 -15.47608,9.243505 15.47051,8.605755 11.21221,-6.196448 4.47372,-2.423083 z"
       id="path15"
       style="fill:#4acfd2;fill-opacity:1;stroke-width:0.220579" />
    <path
       d="m 247.63177,101.95126 v 6.75744 L 220.52,123.48139 193.6536,108.61811 v -6.55462 l 26.88141,14.625 z"
       id="path14"
       style="fill:#ffce56;fill-opacity:1;stroke-width:0.220579" />
    <path
       d="m 193.6536,114.12361 26.88327,14.85336 27.0949,-14.73528 v 6.7594 L 220.52,135.77182 193.6536,120.9087 Z"
       id="path1-1"
       style="fill:#e23e2b;fill-opacity:1;stroke-width:0.220579" />
    <path
       style="fill:#4acfd2;fill-opacity:1;stroke-width:0.227195"
       d="m 212.3192,100.45433 -8.60462,-4.797292 3.60234,-2.10541 c 1.98129,-1.157974 5.94353,-3.457826 8.80496,-5.110781 l 5.20259,-3.005372 8.62313,5.046504 c 4.74273,2.775577 8.70466,5.116114 8.80433,5.201191 0.17615,0.150377 -17.20438,9.59874 -17.62003,9.57856 -0.11443,-0.005 -4.08016,-2.16889 -8.8127,-4.8074 z"
       id="path35" />
  </g>
</svg>
