<?xml version="1.0" encoding="UTF-8" standalone="no"?>
<svg
   viewBox="0 0 98.218807 19.302558"
   width="105.39535"
   height="20.713121"
   version="1.1"
   id="svg4"
   sodipodi:docname="wrf_label.svg"
   inkscape:version="1.4 (86a8ad7, 2024-10-11)"
   xmlns:inkscape="http://www.inkscape.org/namespaces/inkscape"
   xmlns:sodipodi="http://sodipodi.sourceforge.net/DTD/sodipodi-0.dtd"
   xmlns="http://www.w3.org/2000/svg"
   xmlns:svg="http://www.w3.org/2000/svg">
  <defs
     id="defs4">
    <linearGradient
       id="swatch9"
       inkscape:swatch="solid">
      <stop
         style="stop-color:#41b883;stop-opacity:1;"
         offset="0"
         id="stop9" />
    </linearGradient>
  </defs>
  <sodipodi:namedview
     id="namedview4"
     pagecolor="#ffffff"
     bordercolor="#999999"
     borderopacity="1"
     inkscape:showpageshadow="2"
     inkscape:pageopacity="0"
     inkscape:pagecheckerboard="0"
     inkscape:deskcolor="#d1d1d1"
     inkscape:zoom="12.103311"
     inkscape:cx="50.110255"
     inkscape:cy="13.756566"
     inkscape:window-width="2160"
     inkscape:window-height="1334"
     inkscape:window-x="-11"
     inkscape:window-y="-11"
     inkscape:window-maximized="1"
     inkscape:current-layer="svg4" />
  <g
     id="g9"
     transform="translate(-39.140157,-32.616631)">
    <path
       d="m 20.071325,5.0584812 -7.3,12.6669998 -5.456,-3.14 7.3,-12.6669998 z m 1.822,9.5169998 7.3,-12.6669998 5.456,3.14 -7.3,12.6669998 z"
       fill="#0078ff"
       id="path1"
       style="fill:#35495e;fill-opacity:1"
       transform="translate(39.140157,32.616795)"
       sodipodi:nodetypes="cccccccccc" />
    <path
       d="m 24.626325,19.302481 c -1.1,0 -2.147,-0.567 -2.736,-1.58 l -7.285,-12.6699998 a 3.16,3.16 0 0 1 1.157,-4.30400003 3.16,3.16 0 0 1 4.304,1.15700003 l 7.285,12.6699998 a 3.16,3.16 0 0 1 -1.157,4.304 c -0.49,0.29 -1.034,0.423 -1.568,0.423 z"
       id="path3"
       style="fill:#41b883;fill-opacity:1"
       transform="translate(39.140157,32.616795)" />
    <path
       id="path2-5"
       style="fill:#41b883;fill-opacity:1;stroke-width:1"
       d="m 69.529116,33.195269 c -0.0024,0.0031 -0.0035,0.007 -0.007,0.01057 0.007,0.0016 0.01057,0.0029 0.01761,0.0035 -0.0029,-0.0035 -0.007,-0.007 -0.01057,-0.01409 z m -24.926737,1.01199 c 0.02818,-0.02818 -0.782169,0.447986 -2.295189,1.31599 -1.506751,0.864553 -3.167033,1.820118 -3.167033,1.820118 l 7.284172,12.669962 c 0.562843,0.979023 1.606393,1.581667 2.735672,1.579871 l 0.0018,-0.0018 c 0.533997,0 1.067113,-0.122219 1.567121,-0.422273 1.503933,-0.872125 2.021586,-2.795936 1.157597,-4.304624 z m 23.465176,2.6392 c 0.01761,0.04473 0.02818,0.09087 0.04544,0.134547 -0.007,-0.03804 -0.01761,-0.07608 -0.02465,-0.11447 z m 5.343912,0.478699 c -0.0012,5.28e-4 -0.0026,0.0013 -0.0035,0.0018 l 0.0018,0.0018 c 2.12e-4,-10e-4 0.0016,-0.0027 0.0018,-0.0035 z"
       sodipodi:nodetypes="ccccccccccccccccccccccc" />
    <path
       d="m 63.730598,51.588868 c -1.10001,0 -2.147011,-0.567 -2.735989,-1.580012 L 53.709592,37.338859 c -0.863954,-1.508653 -0.346934,-3.431865 1.156999,-4.30399 1.508652,-0.863954 3.431864,-0.346934 4.30399,1.156999 l 7.285017,12.669997 c 0.863953,1.508652 0.346934,3.431864 -1.156999,4.30399 -0.490005,0.289875 -1.034005,0.423013 -1.568001,0.423013 z"
       id="path3-5"
       style="fill:#41b883;fill-opacity:1;stroke-width:1"
       sodipodi:nodetypes="sccccccs" />
  </g>
  <path
     style="font-size:11.1829px;font-family:HGF6_CNKI;-inkscape-font-specification:HGF6_CNKI;text-align:center;letter-spacing:1.90109px;text-anchor:middle;fill:#949a9f;stroke-width:0.931908"
     d="m 42.021469,16.24378 h 1.943903 L 45.58165,9.8660322 47.066879,16.24378 h 1.965745 l 1.026555,-4.193588 0.917347,-3.9533296 H 49.382089 L 48.115276,14.299878 46.608206,8.0968624 H 44.642462 L 43.069866,14.299878 41.781212,8.0968624 h -1.681804 l 0.895506,3.8441216 z m 11.707969,0 h 1.616279 v -3.363607 h 1.63812 c 0.382228,0.02184 0.657068,0.15289 0.824521,0.393149 0.171092,0.240258 0.27848,0.54058 0.322163,0.900966 0.04369,0.356747 0.07463,0.720773 0.09283,1.09208 0.0182,0.371307 0.07098,0.697111 0.158352,0.977412 h 1.747328 c -0.192934,-0.950109 -0.374947,-1.91114 -0.54604,-2.883091 -0.06916,-0.451393 -0.254819,-0.753536 -0.556961,-0.906427 -0.302142,-0.152891 -0.633406,-0.243898 -0.993793,-0.27302 0.480515,-0.08737 0.911887,-0.291222 1.294115,-0.611565 0.382228,-0.320343 0.584263,-0.81542 0.606104,-1.485229 C 59.896056,9.3236323 59.599374,8.799434 59.042411,8.5118529 58.48545,8.2242718 57.879346,8.0859416 57.224098,8.0968624 h -3.494657 z m 1.616279,-4.652261 v -2.31521 h 1.63812 c 0.720773,-0.036403 1.113922,0.3203433 1.179447,1.070238 -0.01456,0.396789 -0.156531,0.704392 -0.425912,0.922808 -0.269379,0.214776 -0.600643,0.322164 -0.993792,0.322164 z m 7.852926,4.652261 h 1.616279 v -3.494656 h 3.254399 V 11.482311 H 64.814922 V 9.385517 h 3.494656 V 8.0968624 h -5.110935 z m 8.005819,0 h 3.254398 c 1.172166,-0.03276 2.067672,-0.435009 2.686518,-1.206748 0.618845,-0.771737 0.931908,-1.716386 0.939188,-2.833948 C 78.062726,10.830703 77.7078,9.8041479 77.019788,9.1234178 76.331778,8.4390475 75.441733,8.0968624 74.349652,8.0968624 h -3.14519 z m 1.747328,-1.266813 v -5.59145 h 1.048397 c 0.811779,0.032763 1.408783,0.3294443 1.791011,0.890045 0.382228,0.560601 0.571522,1.210389 0.567882,1.949363 0.01092,0.822701 -0.180194,1.485229 -0.573342,1.987586 -0.389509,0.498717 -1.057498,0.753535 -2.003967,0.764456 z m 11.828097,0.349466 c -0.815419,-0.03276 -1.3742,-0.374945 -1.676343,-1.026555 -0.298501,-0.651608 -0.438651,-1.394223 -0.42045,-2.227844 -0.01092,-0.789938 0.143791,-1.467028 0.464134,-2.031269 0.323983,-0.5678816 0.875484,-0.8663835 1.654501,-0.8955056 0.804499,0.029122 1.368741,0.3403649 1.692724,0.9337286 0.323984,0.593363 0.480516,1.301395 0.469595,2.124096 0.04732,2.023988 -0.680734,3.065104 -2.184161,3.123349 z m 0.02184,1.157605 c 1.332338,-0.02184 2.304289,-0.42409 2.915854,-1.206749 0.611565,-0.782657 0.913707,-1.829234 0.906427,-3.13973 C 88.627675,10.885307 88.320072,9.8787731 87.7012,9.1179574 87.085995,8.3571415 86.126784,7.9658128 84.823569,7.9439712 83.46939,7.9767339 82.490158,8.4026451 81.885873,9.221705 c -0.604284,0.81542 -0.899146,1.838335 -0.884585,3.068745 -0.01092,1.285015 0.287582,2.300649 0.895506,3.046904 0.611565,0.746255 1.579876,1.128483 2.904933,1.146684 z M 95.160982,16.37483 c 0.928268,-0.0182 1.665422,-0.28394 2.211462,-0.797219 0.54968,-0.516918 0.831801,-1.183087 0.846362,-1.998506 h -1.747328 c 0.02184,0.378587 -0.06735,0.720772 -0.26756,1.026555 -0.200215,0.305783 -0.533299,0.465954 -0.999253,0.480515 -0.859103,-0.04369 -1.412424,-0.391332 -1.659962,-1.042936 -0.247538,-0.651608 -0.356746,-1.345079 -0.327624,-2.080413 -0.02548,-0.484155 0.07645,-1.044756 0.305782,-1.681803 0.232977,-0.6370469 0.742615,-0.9865127 1.528913,-1.0483972 0.910067,0.021841 1.383301,0.5023567 1.419704,1.4415462 h 1.63812 C 98.095038,9.8077881 97.807457,9.1416191 97.246855,8.6756649 96.686254,8.2097107 96.005524,7.9730933 95.204665,7.9658128 c -1.332338,0.047323 -2.291548,0.5041769 -2.877631,1.3705606 -0.586083,0.8663836 -0.871844,1.8729176 -0.857283,3.0196016 0.0037,1.161245 0.336751,2.114995 0.999253,2.86125 0.662529,0.746255 1.559855,1.132123 2.691978,1.157605 z"
     id="text9"
     inkscape:transform-center-x="30.952452"
     inkscape:transform-center-y="16.78516"
     aria-label="WRFDOC"
     sodipodi:nodetypes="ccccccccccccccccccccccscccscscsccccccccsccccccccccccccsccscccccscccccccccscccscccccccccccscscccccscsccc" />
</svg>
